<svg xmlns="http://www.w3.org/2000/svg" width="39.813" height="45.5" viewBox="0 0 39.813 45.5">
  <path id="Icon_awesome-podcast" data-name="Icon awesome-podcast" d="M23.766,43.417c-.457,1.689-2.184,2.083-3.859,2.083s-3.4-.393-3.859-2.083a64.755,64.755,0,0,1-1.828-11.8c0-3.124,2.768-3.888,5.688-3.888s5.687.764,5.687,3.888A64.819,64.819,0,0,1,23.766,43.417ZM13.94,25.643a8.531,8.531,0,1,1,11.932,0,.534.534,0,0,0,.056.816,5.912,5.912,0,0,1,1.887,2.254.53.53,0,0,0,.84.168,12.8,12.8,0,1,0-17.5,0,.53.53,0,0,0,.84-.168,5.912,5.912,0,0,1,1.887-2.254.534.534,0,0,0,.056-.816ZM19.906,0a19.912,19.912,0,0,0-8.732,37.8.533.533,0,0,0,.758-.561c-.212-1.379-.386-2.75-.48-3.94a.536.536,0,0,0-.238-.4,15.64,15.64,0,1,1,17.166.144c-.089,1.247-.273,2.718-.5,4.2a.533.533,0,0,0,.758.561A19.912,19.912,0,0,0,19.906,0Zm0,14.219a5.687,5.687,0,1,0,5.687,5.688A5.688,5.688,0,0,0,19.906,14.219Z" fill="#fff"/>
</svg>
