<?xml version="1.0" encoding="UTF-8"?><svg xmlns="http://www.w3.org/2000/svg" viewBox="0 0 398 398"><defs><style>.c{fill:#fff;}.d{fill:none;stroke:#fff;stroke-miterlimit:10;stroke-width:4px;}</style></defs><g id="a"><path class="d" d="M250.88,87.5c32.87,0,59.62,26.75,59.62,59.62v103.76c0,32.87-26.75,59.62-59.62,59.62h-103.76c-32.87,0-59.62-26.75-59.62-59.62v-103.76c0-32.87,26.75-59.62,59.62-59.62h103.76m12.37,64.62c11.79,0,21.38-9.59,21.38-21.38s-9.59-21.38-21.38-21.38-21.38,9.59-21.38,21.38,9.59,21.38,21.38,21.38m-64.25,114.69c37.39,0,67.81-30.42,67.81-67.81s-30.42-67.81-67.81-67.81-67.81,30.42-67.81,67.81,30.42,67.81,67.81,67.81m51.88-186.31h-103.76c-36.79,0-66.62,29.83-66.62,66.62v103.76c0,36.79,29.83,66.62,66.62,66.62h103.76c36.79,0,66.62-29.83,66.62-66.62v-103.76c0-36.79-29.83-66.62-66.62-66.62h0Zm12.37,64.62c-7.94,0-14.38-6.44-14.38-14.38s6.44-14.38,14.38-14.38,14.38,6.44,14.38,14.38-6.44,14.38-14.38,14.38h0Zm-64.25,114.69c-33.59,0-60.81-27.23-60.81-60.81s27.23-60.81,60.81-60.81,60.81,27.23,60.81,60.81-27.23,60.81-60.81,60.81h0Z"/></g><g id="b"><path class="c" d="M199,0C89.1,0,0,89.1,0,199s89.1,199,199,199,199-89.1,199-199S308.9,0,199,0Zm118.5,250.88c0,36.79-29.83,66.62-66.62,66.62h-103.76c-36.79,0-66.62-29.83-66.62-66.62v-103.76c0-36.79,29.83-66.62,66.62-66.62h103.76c36.79,0,66.62,29.83,66.62,66.62v103.76Z"/></g></svg>