<?xml version="1.0" encoding="UTF-8"?><svg xmlns="http://www.w3.org/2000/svg" viewBox="0 0 398 398"><defs><style>.c{fill:#fff;}</style></defs><g id="a"/><g id="b"><g><path class="c" d="M210.62,173.23c14.15,21.54,37.86,57.15,48.71,70.7,0,0,19,13,27-8,0,0,8-49-22-83-25.99-29.46-48.23,9.39-53.71,20.3Z"/><path class="c" d="M199,0C89.1,0,0,89.1,0,199s89.1,199,199,199,199-89.1,199-199S308.9,0,199,0Zm86.32,267.93s-35,12-51.5-19.5c0,0-19.02-29.94-34.5-53.5-6.45,10.56-29.23,52.09-43,65-16,15-33,11-33,11,0,0-37-2-33-60,0,0,3-57,43-78s66,23,66,23c0,0,1.17,1.73,2,3,4.42-6.64,19.33-28.64,42-32,27-4,46,28,46,28,0,0,14,19,18,54,5.17,45.25-22,59-22,59Z"/><path class="c" d="M138.82,153.43c-22.5,15.5-28.5,70.5-22.5,84.5s19,12,28,5c9-6,44.63-63.09,44.63-63.09-3.95-5.91-7.18-10.69-9.13-13.41-10-14-24.59-24.3-41-13Z"/></g></g></svg>